<svg id="Capa_1" data-name="Capa 1" xmlns="http://www.w3.org/2000/svg" viewBox="0 0 255 186.35"><path d="M113.29,19.62V127.5a58.85,58.85,0,0,1-58.85,58.85,9.81,9.81,0,1,1,0-19.62A39.35,39.35,0,0,0,93.67,127.5v-9.81H20.12A19.61,19.61,0,0,1,.5,98.08V19.62A19.61,19.61,0,0,1,20.12,0H93.67A19.61,19.61,0,0,1,113.29,19.62ZM235.88,0H162.33a19.61,19.61,0,0,0-19.62,19.62V98.08a19.61,19.61,0,0,0,19.62,19.61h73.55v9.81a39.35,39.35,0,0,1-39.23,39.23,9.81,9.81,0,0,0,0,19.62A58.85,58.85,0,0,0,255.5,127.5V19.62A19.61,19.61,0,0,0,235.88,0Z" transform="translate(-0.5 0)"/></svg>