<svg width="29" height="27" viewBox="0 0 29 27" fill="none" xmlns="http://www.w3.org/2000/svg">
<path id="Vector" d="M12.8269 2.84211V18.4737C12.8269 20.735 12.1218 22.9037 10.8668 24.5027C9.61174 26.1017 7.90953 27 6.13461 27C5.8388 27 5.55509 26.8503 5.34592 26.5838C5.13674 26.3173 5.01923 25.9558 5.01923 25.5789C5.01923 25.2021 5.13674 24.8406 5.34592 24.5741C5.55509 24.3076 5.8388 24.1579 6.13461 24.1579C7.31676 24.1532 8.44943 23.5528 9.28534 22.4879C10.1212 21.4229 10.5925 19.9798 10.5962 18.4737V17.0526H2.23077C1.63913 17.0526 1.07173 16.7532 0.653377 16.2202C0.235027 15.6872 0 14.9643 0 14.2105V2.84211C0 2.08833 0.235027 1.36543 0.653377 0.832433C1.07173 0.299435 1.63913 0 2.23077 0H10.5962C11.1878 0 11.7552 0.299435 12.1735 0.832433C12.5919 1.36543 12.8269 2.08833 12.8269 2.84211ZM26.7692 0H18.4038C17.8122 0 17.2448 0.299435 16.8265 0.832433C16.4081 1.36543 16.1731 2.08833 16.1731 2.84211V14.2105C16.1731 14.9643 16.4081 15.6872 16.8265 16.2202C17.2448 16.7532 17.8122 17.0526 18.4038 17.0526H26.7692V18.4737C26.7656 19.9798 26.2943 21.4229 25.4584 22.4879C24.6225 23.5528 23.4898 24.1532 22.3077 24.1579C22.0119 24.1579 21.7282 24.3076 21.519 24.5741C21.3098 24.8406 21.1923 25.2021 21.1923 25.5789C21.1923 25.9558 21.3098 26.3173 21.519 26.5838C21.7282 26.8503 22.0119 27 22.3077 27C24.0826 27 25.7848 26.1017 27.0399 24.5027C28.2949 22.9037 29 20.735 29 18.4737V2.84211C29 2.08833 28.765 1.36543 28.3466 0.832433C27.9283 0.299435 27.3609 0 26.7692 0Z" fill="#FFCB7D"/>
</svg>
